<mxfile host="Electron" agent="Mozilla/5.0 (X11; Linux x86_64) AppleWebKit/537.36 (KHTML, like Gecko) draw.io/27.0.9 Chrome/134.0.6998.205 Electron/35.7.2 Safari/537.36" version="27.0.9">
  <diagram name="Page-1" id="yHc2qawSOuz7ub7XOdZc">
    <mxGraphModel dx="920" dy="424" grid="1" gridSize="10" guides="1" tooltips="1" connect="1" arrows="1" fold="1" page="1" pageScale="1" pageWidth="350" pageHeight="70" math="0" shadow="0">
      <root>
        <mxCell id="0" />
        <mxCell id="1" parent="0" />
        <mxCell id="1clJwsIIyA5pb1SnlBmc-2" value="bf2-host" style="whiteSpace=wrap;html=1;" vertex="1" parent="1">
          <mxGeometry x="-70" y="80" width="120" height="130" as="geometry" />
        </mxCell>
        <mxCell id="1clJwsIIyA5pb1SnlBmc-3" value="test-host" style="whiteSpace=wrap;html=1;" vertex="1" parent="1">
          <mxGeometry x="240" y="80" width="120" height="130" as="geometry" />
        </mxCell>
        <mxCell id="1clJwsIIyA5pb1SnlBmc-4" value="CX5" style="whiteSpace=wrap;html=1;" vertex="1" parent="1">
          <mxGeometry x="200" y="80" width="40" height="40" as="geometry" />
        </mxCell>
        <mxCell id="1clJwsIIyA5pb1SnlBmc-5" value="p1" style="whiteSpace=wrap;html=1;fillColor=#6a00ff;fontColor=#ffffff;strokeColor=#3700CC;" vertex="1" parent="1">
          <mxGeometry x="160" y="80" width="40" height="20" as="geometry" />
        </mxCell>
        <mxCell id="1clJwsIIyA5pb1SnlBmc-6" value="p2" style="whiteSpace=wrap;html=1;fillColor=#6a00ff;fontColor=#ffffff;strokeColor=#3700CC;" vertex="1" parent="1">
          <mxGeometry x="160" y="100" width="40" height="20" as="geometry" />
        </mxCell>
        <mxCell id="1clJwsIIyA5pb1SnlBmc-7" value="BF2" style="whiteSpace=wrap;html=1;" vertex="1" parent="1">
          <mxGeometry x="50" y="80" width="40" height="65" as="geometry" />
        </mxCell>
        <mxCell id="1clJwsIIyA5pb1SnlBmc-10" style="edgeStyle=orthogonalEdgeStyle;rounded=0;orthogonalLoop=1;jettySize=auto;html=1;entryX=0;entryY=0.5;entryDx=0;entryDy=0;endArrow=none;startFill=0;fillColor=#6a00ff;strokeColor=#3700CC;" edge="1" parent="1" source="1clJwsIIyA5pb1SnlBmc-8" target="1clJwsIIyA5pb1SnlBmc-5">
          <mxGeometry relative="1" as="geometry" />
        </mxCell>
        <mxCell id="1clJwsIIyA5pb1SnlBmc-8" value="p1" style="whiteSpace=wrap;html=1;fillColor=#6a00ff;fontColor=#ffffff;strokeColor=#3700CC;" vertex="1" parent="1">
          <mxGeometry x="90" y="80" width="40" height="20" as="geometry" />
        </mxCell>
        <mxCell id="1clJwsIIyA5pb1SnlBmc-11" style="edgeStyle=orthogonalEdgeStyle;rounded=0;orthogonalLoop=1;jettySize=auto;html=1;strokeColor=#3700CC;align=center;verticalAlign=middle;fontFamily=Helvetica;fontSize=11;fontColor=default;labelBackgroundColor=default;startFill=0;endArrow=none;fillColor=#6a00ff;" edge="1" parent="1" source="1clJwsIIyA5pb1SnlBmc-9" target="1clJwsIIyA5pb1SnlBmc-6">
          <mxGeometry relative="1" as="geometry" />
        </mxCell>
        <mxCell id="1clJwsIIyA5pb1SnlBmc-9" value="p2" style="whiteSpace=wrap;html=1;fillColor=#6a00ff;fontColor=#ffffff;strokeColor=#3700CC;" vertex="1" parent="1">
          <mxGeometry x="90" y="100" width="40" height="20" as="geometry" />
        </mxCell>
        <mxCell id="1clJwsIIyA5pb1SnlBmc-12" value="GPU" style="whiteSpace=wrap;html=1;" vertex="1" parent="1">
          <mxGeometry x="50" y="145" width="40" height="65" as="geometry" />
        </mxCell>
        <mxCell id="1clJwsIIyA5pb1SnlBmc-13" value="GPU" style="whiteSpace=wrap;html=1;" vertex="1" parent="1">
          <mxGeometry x="200" y="145" width="40" height="65" as="geometry" />
        </mxCell>
        <mxCell id="1clJwsIIyA5pb1SnlBmc-14" value="oob" style="whiteSpace=wrap;html=1;fillColor=#008a00;fontColor=#ffffff;strokeColor=#005700;" vertex="1" parent="1">
          <mxGeometry x="50" y="60" width="40" height="20" as="geometry" />
        </mxCell>
        <mxCell id="1clJwsIIyA5pb1SnlBmc-21" style="edgeStyle=orthogonalEdgeStyle;rounded=0;orthogonalLoop=1;jettySize=auto;html=1;entryX=0.5;entryY=0;entryDx=0;entryDy=0;endArrow=none;startFill=0;exitX=0.25;exitY=1;exitDx=0;exitDy=0;" edge="1" parent="1" source="1clJwsIIyA5pb1SnlBmc-15" target="1clJwsIIyA5pb1SnlBmc-14">
          <mxGeometry relative="1" as="geometry">
            <Array as="points">
              <mxPoint x="98" y="50" />
              <mxPoint x="70" y="50" />
            </Array>
          </mxGeometry>
        </mxCell>
        <mxCell id="1clJwsIIyA5pb1SnlBmc-15" value="mgmt" style="whiteSpace=wrap;html=1;" vertex="1" parent="1">
          <mxGeometry x="50" y="10" width="190" height="20" as="geometry" />
        </mxCell>
        <mxCell id="1clJwsIIyA5pb1SnlBmc-18" style="edgeStyle=orthogonalEdgeStyle;rounded=0;orthogonalLoop=1;jettySize=auto;html=1;entryX=0;entryY=0.5;entryDx=0;entryDy=0;endArrow=none;startFill=0;" edge="1" parent="1" source="1clJwsIIyA5pb1SnlBmc-16" target="1clJwsIIyA5pb1SnlBmc-17">
          <mxGeometry relative="1" as="geometry" />
        </mxCell>
        <mxCell id="1clJwsIIyA5pb1SnlBmc-19" style="edgeStyle=orthogonalEdgeStyle;rounded=0;orthogonalLoop=1;jettySize=auto;html=1;entryX=0.25;entryY=0;entryDx=0;entryDy=0;endArrow=none;startFill=0;" edge="1" parent="1" source="1clJwsIIyA5pb1SnlBmc-16" target="1clJwsIIyA5pb1SnlBmc-15">
          <mxGeometry relative="1" as="geometry" />
        </mxCell>
        <mxCell id="1clJwsIIyA5pb1SnlBmc-16" value="router 1" style="whiteSpace=wrap;html=1;" vertex="1" parent="1">
          <mxGeometry x="50" y="-35" width="80" height="20" as="geometry" />
        </mxCell>
        <mxCell id="1clJwsIIyA5pb1SnlBmc-20" style="edgeStyle=orthogonalEdgeStyle;rounded=0;orthogonalLoop=1;jettySize=auto;html=1;entryX=0.75;entryY=0;entryDx=0;entryDy=0;endArrow=none;startFill=0;" edge="1" parent="1" source="1clJwsIIyA5pb1SnlBmc-17" target="1clJwsIIyA5pb1SnlBmc-15">
          <mxGeometry relative="1" as="geometry" />
        </mxCell>
        <mxCell id="1clJwsIIyA5pb1SnlBmc-17" value="router 2" style="whiteSpace=wrap;html=1;" vertex="1" parent="1">
          <mxGeometry x="160" y="-35" width="80" height="20" as="geometry" />
        </mxCell>
        <mxCell id="1clJwsIIyA5pb1SnlBmc-27" style="edgeStyle=orthogonalEdgeStyle;rounded=0;orthogonalLoop=1;jettySize=auto;html=1;entryX=0;entryY=0.5;entryDx=0;entryDy=0;strokeColor=default;align=center;verticalAlign=middle;fontFamily=Helvetica;fontSize=11;fontColor=default;labelBackgroundColor=default;startFill=0;endArrow=none;" edge="1" parent="1" source="1clJwsIIyA5pb1SnlBmc-22" target="1clJwsIIyA5pb1SnlBmc-15">
          <mxGeometry relative="1" as="geometry" />
        </mxCell>
        <mxCell id="1clJwsIIyA5pb1SnlBmc-22" value="mgmt" style="whiteSpace=wrap;html=1;fillColor=#008a00;fontColor=#ffffff;strokeColor=#005700;" vertex="1" parent="1">
          <mxGeometry x="-30" y="60" width="40" height="20" as="geometry" />
        </mxCell>
        <mxCell id="1clJwsIIyA5pb1SnlBmc-26" style="edgeStyle=orthogonalEdgeStyle;rounded=0;orthogonalLoop=1;jettySize=auto;html=1;entryX=1;entryY=0.5;entryDx=0;entryDy=0;strokeColor=default;align=center;verticalAlign=middle;fontFamily=Helvetica;fontSize=11;fontColor=default;labelBackgroundColor=default;startFill=0;endArrow=none;" edge="1" parent="1" source="1clJwsIIyA5pb1SnlBmc-25" target="1clJwsIIyA5pb1SnlBmc-15">
          <mxGeometry relative="1" as="geometry" />
        </mxCell>
        <mxCell id="1clJwsIIyA5pb1SnlBmc-25" value="mgmt" style="whiteSpace=wrap;html=1;fillColor=#008a00;fontColor=#ffffff;strokeColor=#005700;" vertex="1" parent="1">
          <mxGeometry x="280" y="60" width="40" height="20" as="geometry" />
        </mxCell>
        <mxCell id="1clJwsIIyA5pb1SnlBmc-28" value="100G" style="whiteSpace=wrap;html=1;" vertex="1" parent="1">
          <mxGeometry x="70" y="280" width="190" height="40" as="geometry" />
        </mxCell>
        <mxCell id="1clJwsIIyA5pb1SnlBmc-29" value="100G" style="whiteSpace=wrap;html=1;" vertex="1" parent="1">
          <mxGeometry x="70" y="330" width="190" height="40" as="geometry" />
        </mxCell>
        <mxCell id="1clJwsIIyA5pb1SnlBmc-33" style="edgeStyle=orthogonalEdgeStyle;rounded=0;orthogonalLoop=1;jettySize=auto;html=1;endArrow=none;startFill=0;" edge="1" parent="1" source="1clJwsIIyA5pb1SnlBmc-32" target="1clJwsIIyA5pb1SnlBmc-7">
          <mxGeometry relative="1" as="geometry" />
        </mxCell>
        <mxCell id="1clJwsIIyA5pb1SnlBmc-32" value="oob" style="whiteSpace=wrap;html=1;fillColor=#008a00;fontColor=#ffffff;strokeColor=#005700;" vertex="1" parent="1">
          <mxGeometry x="-10" y="102.5" width="40" height="20" as="geometry" />
        </mxCell>
        <mxCell id="1clJwsIIyA5pb1SnlBmc-35" style="edgeStyle=orthogonalEdgeStyle;rounded=0;orthogonalLoop=1;jettySize=auto;html=1;entryX=0;entryY=0.5;entryDx=0;entryDy=0;endArrow=none;startFill=0;" edge="1" parent="1" source="1clJwsIIyA5pb1SnlBmc-34" target="1clJwsIIyA5pb1SnlBmc-15">
          <mxGeometry relative="1" as="geometry">
            <Array as="points">
              <mxPoint x="-50" y="20" />
            </Array>
          </mxGeometry>
        </mxCell>
        <mxCell id="1clJwsIIyA5pb1SnlBmc-34" value="ipmi" style="whiteSpace=wrap;html=1;fillColor=#008a00;fontColor=#ffffff;strokeColor=#005700;" vertex="1" parent="1">
          <mxGeometry x="-70" y="60" width="40" height="20" as="geometry" />
        </mxCell>
        <mxCell id="1clJwsIIyA5pb1SnlBmc-36" value="warpgate" style="whiteSpace=wrap;html=1;" vertex="1" parent="1">
          <mxGeometry x="-130" y="-65" width="120" height="60" as="geometry" />
        </mxCell>
      </root>
    </mxGraphModel>
  </diagram>
</mxfile>
